<svg width="509" height="1105" viewBox="0 0 509 1105" fill="none" xmlns="http://www.w3.org/2000/svg">
<path d="M361.583 109.994C248.25 137.88 84.8844 145.063 62.7698 140.421C52.5752 138.288 46.3329 140.766 45.5801 142.899C54.3318 155.289 117.821 172.918 215.69 161.123C259.26 155.885 358.571 129.285 374.883 113.319C374.726 107.672 361.551 109.962 361.551 109.962L361.583 109.994Z" fill="#815A3A"/>
<path d="M358.415 157.077C359.669 155.07 361.865 153.125 364.124 152.623C365.598 152.278 372.562 154.944 372.091 155.226C376.922 152.278 383.823 153.219 387.681 157.297C391.445 154.819 396.558 154.348 400.73 156.073C404.933 157.83 408.102 161.72 408.854 166.111C412.023 164.449 416.163 164.794 419.018 166.927C421.872 169.06 423.284 172.855 422.468 176.274C426.609 176.368 431.126 180.383 432.036 184.242C432.694 187.034 431.785 190.108 429.746 192.146C432.255 192.272 434.796 192.397 437.054 193.433C443.799 196.538 441.446 208.113 434.953 210.277C439.031 211.783 442.199 215.453 443.014 219.625C443.83 223.797 442.293 228.345 439.093 231.231C443.485 237.912 431.973 249.832 428.648 245.096C431.283 248.86 431.157 254.255 428.334 257.894C425.511 261.533 420.21 263.132 415.787 261.689C418.704 266.991 416.697 274.362 411.458 277.562C406.188 280.761 398.503 279.255 394.927 274.362C394.613 278.91 390.881 282.988 386.301 283.835C381.721 284.682 376.702 282.204 374.695 278.095C372.185 282.863 365.974 285.466 360.704 283.898C355.435 282.33 351.733 276.809 352.423 271.476C348.345 274.958 342.04 275.084 337.398 272.668C335.233 271.539 333.038 269.814 332.097 267.555C331.657 266.489 331.971 260.372 331.501 260.215C323.502 257.58 319.361 247.323 323.376 240.077C316.538 238.007 313.401 228.659 317.699 223.075C311.77 217.711 311.707 207.423 317.573 201.996C312.178 198.546 311.645 189.825 316.569 185.747C310.609 182.956 309.606 173.639 314.844 169.687C310.421 165.797 310.484 158.112 315.001 154.285C319.487 150.49 327.329 151.494 330.685 156.293C334.669 148.231 343.389 155.885 341.476 157.799C345.773 153.532 353.772 153.627 357.975 157.987C358.101 157.673 358.289 157.391 358.477 157.077H358.415Z" fill="#603312"/>
<path d="M388.089 179.223C390.787 181.952 392.355 185.685 391.539 189.198C395.053 186.689 400.354 186.908 403.679 189.669C407.004 192.429 408.008 197.479 406 201.275C410.548 201.965 414.595 205.227 416.101 209.462C417.606 213.697 416.54 218.715 413.403 221.978C416.54 218.151 419.771 214.104 420.524 209.274C421.276 204.443 418.547 198.734 413.623 197.918C416.603 193.778 415.912 187.536 412.086 184.085C408.259 180.666 401.797 180.509 397.813 183.709C400.354 181.638 391.665 174.894 390.096 174.33C385.266 172.573 378.773 174.079 374.601 176.651C379.18 173.859 384.607 175.647 388.12 179.192L388.089 179.223Z" fill="#4C2502"/>
<path d="M387.587 268.716C384.858 271.351 380.184 271.822 376.953 269.783C373.722 267.712 372.311 263.352 373.722 259.87C369.456 261.846 363.841 260.498 361.05 256.765C358.258 253.063 358.634 247.417 361.865 244.092C358.007 244.374 354.431 240.579 355.027 236.846C350.918 237.223 346.652 235.09 344.581 231.639C342.511 228.157 342.699 223.515 345.052 220.221C342.793 221.601 339.562 220.221 338.339 217.9C337.116 215.579 337.429 212.756 338.245 210.277C339.06 207.799 340.315 205.447 340.88 202.906C342.009 197.95 340.284 192.46 336.488 188.979C341.727 186.657 343.766 179.38 340.535 174.769C345.177 169.468 345.867 162.41 344.268 155.885C343.232 156.387 342.26 157.046 341.444 157.862C343.358 155.979 334.638 148.326 330.654 156.356C327.329 151.557 319.487 150.553 314.97 154.348C310.484 158.144 310.39 165.86 314.813 169.75C309.574 173.671 310.578 183.019 316.538 185.81C311.613 189.888 312.147 198.577 317.542 202.059C311.676 207.486 311.739 217.774 317.667 223.138C313.37 228.722 316.507 238.101 323.345 240.14C319.33 247.354 323.502 257.643 331.469 260.278C331.971 260.435 331.626 266.552 332.065 267.618C333.006 269.877 335.202 271.633 337.367 272.731C342.009 275.147 348.345 275.021 352.392 271.539C351.702 276.872 355.403 282.393 360.673 283.961C365.943 285.529 372.185 282.957 374.663 278.158C376.671 282.267 381.69 284.745 386.27 283.898C388.685 283.459 390.849 282.11 392.418 280.291C388.779 277.593 386.301 273.045 387.556 268.779L387.587 268.716Z" fill="#4C2502"/>
<path d="M321.337 151.148C321.337 151.148 327.736 145.439 329.9 152.184C332.033 158.959 329.9 182.36 318.137 180.791C306.374 179.223 321.337 151.148 321.337 151.148Z" fill="#FFDD00"/>
<path d="M152.733 166.362C153.988 164.355 156.184 162.41 158.442 161.908C159.917 161.563 166.88 164.229 166.41 164.512C171.241 161.563 178.142 162.504 182 166.582C185.764 164.104 190.877 163.633 195.049 165.358C199.252 167.115 202.421 171.005 203.173 175.396C206.342 173.734 210.482 174.079 213.337 176.212C216.191 178.345 217.603 182.14 216.787 185.559C220.928 185.654 225.445 189.669 226.354 193.527C227.013 196.319 226.103 199.393 224.065 201.432C226.574 201.557 229.115 201.683 231.373 202.718C238.117 205.823 235.765 217.398 229.272 219.562C233.349 221.068 236.518 224.738 237.333 228.91C238.149 233.082 236.612 237.63 233.412 240.516C237.804 247.198 226.292 259.117 222.967 254.381C225.602 258.145 225.476 263.54 222.653 267.179C219.83 270.818 214.529 272.417 210.106 270.975C213.054 276.276 211.015 283.647 205.777 286.847C200.507 290.046 192.822 288.541 189.246 283.647C188.932 288.196 185.199 292.273 180.62 293.12C176.04 293.967 171.021 291.489 169.013 287.38C166.504 292.148 160.293 294.751 155.023 293.183C149.753 291.615 146.052 286.094 146.742 280.761C142.664 284.243 136.359 284.369 131.717 281.953C129.584 280.824 127.357 279.099 126.415 276.84C125.976 275.774 126.29 269.657 125.819 269.5C117.821 266.865 113.68 256.608 117.695 249.362C110.857 247.323 107.72 237.944 112.018 232.361C106.089 226.997 106.026 216.708 111.892 211.281C106.497 207.831 105.963 199.11 110.888 195.033C104.928 192.241 103.925 182.925 109.163 178.972C104.74 175.083 104.803 167.397 109.32 163.57C113.805 159.775 121.648 160.779 125.004 165.578C128.988 157.516 137.708 165.17 135.795 167.084C140.092 162.818 148.091 162.88 152.294 167.272C152.42 166.958 152.608 166.676 152.796 166.362H152.733Z" fill="#603312"/>
<path d="M189.246 283.647C192.853 288.541 200.539 290.046 205.777 286.847C211.047 283.647 213.055 276.276 210.106 270.975C214.529 272.417 219.83 270.818 222.653 267.179C225.476 263.54 225.602 258.145 222.967 254.381C226.292 259.117 237.804 247.166 233.413 240.516C236.612 237.63 238.149 233.082 237.334 228.91C236.518 224.738 233.35 221.068 229.272 219.562C235.765 217.398 238.118 205.823 231.374 202.718C229.115 201.683 226.543 201.557 224.065 201.432C226.104 199.393 227.013 196.319 226.355 193.527C225.445 189.637 220.928 185.654 216.787 185.559C217.603 182.14 216.191 178.345 213.337 176.212C210.482 174.079 206.342 173.765 203.174 175.396C202.421 171.005 199.253 167.115 195.049 165.358C190.846 163.602 185.764 164.072 182 166.582C178.173 162.473 171.241 161.563 166.41 164.512C166.881 164.229 159.948 161.563 158.443 161.908C156.153 162.441 153.957 164.355 152.734 166.362C152.545 166.676 152.389 166.958 152.232 167.272C148.028 162.912 140.03 162.818 135.732 167.084C137.646 165.202 128.925 157.548 124.941 165.578C121.616 160.779 113.774 159.775 109.257 163.57C104.772 167.366 104.678 175.083 109.101 178.972C103.862 182.893 104.866 192.241 110.826 195.033C110.01 195.723 109.32 196.538 108.818 197.417C111.83 199.487 115.562 200.585 119.264 200.397C119.327 213.383 129.772 225.616 142.853 228.063C140.814 234.117 147.809 240.987 154.051 239.042C152.357 243.057 153.016 247.95 155.745 251.37C158.474 254.82 163.179 256.671 167.602 256.075C165.595 262.85 173.28 270.316 180.243 268.371C178.11 276.307 179.428 284.965 183.349 292.211C186.58 290.548 188.964 287.255 189.215 283.679L189.246 283.647Z" fill="#4C2502"/>
<path d="M124.973 185.591C124.973 185.591 122.275 192.209 115.845 188.822C106.717 183.991 98.404 162.127 109.54 158.018C120.675 153.909 124.941 185.591 124.941 185.591H124.973Z" fill="#FFDD00"/>
<path d="M135.544 212.693C135.544 212.693 93.3536 152.654 102.952 98.8897L320.647 72.917C320.647 72.917 336.959 125.772 315.848 192.994L135.544 212.693Z" fill="#603312"/>
<path d="M320.647 72.9166L102.952 98.8893C99.69 117.24 102.45 136.343 107.501 153.532C160.983 152.058 250.038 144.969 326.544 129.975C327.611 95.533 320.647 72.8853 320.647 72.8853V72.9166Z" fill="#4C2502"/>
<path d="M378.71 682.554C378.71 682.554 392.418 716.714 380.812 727.693C369.205 738.671 330.121 749.054 277.328 731.582C224.535 714.142 126.729 716.149 126.729 716.149C126.729 716.149 318.577 616.022 378.678 682.554H378.71Z" fill="#6A4B00"/>
<path d="M308.821 353.127C338.37 389.514 356.971 411.189 356.971 411.189C391.445 459.684 432.475 486.285 432.475 486.285C442.795 475.149 452.801 479.979 452.801 479.979C427.017 438.354 389.72 397.544 387.336 395.38C385.579 392.808 316.663 295.692 312.241 291.646C309.417 289.074 305.339 286.784 300.634 284.776L308.821 353.096V353.127Z" fill="#DD915D"/>
<path d="M356.972 411.189C356.972 411.189 338.37 389.514 308.821 353.127L301.387 290.83L302.83 285.749C306.626 287.505 309.857 289.481 312.272 291.646C316.695 295.661 385.548 392.682 387.367 395.348C387.43 395.411 387.524 395.505 387.65 395.631C387.712 395.693 387.806 395.788 387.901 395.882C387.901 395.882 387.901 395.882 387.932 395.913C387.932 395.913 387.932 395.913 387.963 395.944C387.995 395.976 388.026 396.007 388.057 396.038C388.12 396.101 388.183 396.164 388.246 396.227C379.149 398.799 366.068 404.79 370.617 417.275C377.424 435.907 432.475 486.222 432.475 486.222C432.475 486.222 391.445 459.59 356.972 411.126V411.189Z" fill="#D57C3F"/>
<path d="M447.437 474.02C447.437 474.02 443.61 474.49 432.945 478.882C423.409 482.803 427.926 494.879 427.926 494.879C427.926 494.879 428.271 498.549 428.491 502.282C428.491 502.282 452.707 498.11 478.68 498.581C478.68 498.581 469.677 490.017 447.468 474.051L447.437 474.02Z" fill="#DD915D"/>
<path d="M336.928 858.121L319.393 859.532C315.064 859.877 315.566 866.433 315.566 866.433L320.961 926.566C321.777 933.31 317.542 934.47 317.542 934.47L306.94 935.317L306.344 927.538L314.719 926.848L309.292 866.308C308.226 854.419 316.821 853.729 316.821 853.729L336.394 852.129C336.394 852.129 337.931 852.82 338.12 854.921C338.308 857.023 336.928 858.058 336.928 858.058V858.121Z" fill="#414042"/>
<path d="M342.229 831.803L378.804 828.823C381.094 828.635 381.752 830.454 381.752 830.454L390.128 851.784L332.379 855.454L337.712 834.312C337.712 834.312 339.75 831.991 342.26 831.803H342.229Z" fill="#414042"/>
<path d="M335.296 864.677L387.932 860.411C389.688 860.254 391.037 858.936 390.912 857.431L390.504 852.757C390.379 851.251 388.81 850.153 387.053 850.31L334.418 854.576C332.661 854.733 331.312 856.05 331.438 857.556L331.846 862.23C331.971 863.736 333.539 864.833 335.296 864.677Z" fill="url(#paint0_linear_630_58)"/>
<path d="M319.518 757.712C319.518 757.712 313.684 814.927 328.552 834.156C343.421 853.384 366.821 841.057 371.652 826.47C376.295 812.418 380.059 786.163 367.292 739.769L319.518 757.68V757.712Z" fill="#EFD7B8"/>
<path d="M328.583 796.012C328.583 796.012 344.142 805.736 365.378 794.193L365.817 801.376C365.817 801.376 348.22 812.763 329.179 803.886L328.583 795.981V796.012Z" fill="white"/>
<path d="M367.291 739.801L319.518 757.712C319.518 757.712 318.043 763.546 317.918 776.501C329.838 796.483 345.898 793.597 345.898 793.597C370.397 790.084 368.17 764.299 371.056 773.27C373.032 779.356 375.071 796.765 375.667 804.764C376.733 789.582 375.165 768.565 367.26 739.801H367.291Z" fill="#E6C090"/>
<path d="M216.222 996.485L269.925 992.125C271.524 991.999 272.904 993.003 273.03 994.321L273.406 998.524C273.406 998.838 273.406 999.151 273.281 999.434L263.588 1025.06L213.556 999.151C213.43 997.802 214.622 996.611 216.222 996.485Z" fill="#565759"/>
<path d="M213.87 997.897C214.685 996.517 216.222 996.485 216.222 996.485L269.925 992.125C271.305 992.125 271.901 992.627 271.901 992.627L261.487 1018.57L195.018 1023.09L213.87 997.897Z" fill="#414042"/>
<path d="M197.371 1021.89L259.887 1016.81C261.644 1016.65 263.212 1017.78 263.338 1019.26L263.746 1023.93C263.871 1025.44 262.554 1026.79 260.766 1026.91L198.249 1031.99C196.492 1032.15 194.924 1031.02 194.798 1029.55L194.391 1024.87C194.265 1023.37 195.583 1022.02 197.371 1021.89Z" fill="#8F9194"/>
<path d="M267.823 1005.61L274.442 1005.08C278.771 1004.74 278.269 998.179 278.269 998.179L272.874 938.047C272.058 931.303 276.293 930.142 276.293 930.142L286.895 929.295L287.491 937.074L279.116 937.764L284.543 998.305C285.609 1010.19 277.014 1010.88 277.014 1010.88L268.357 1011.57C268.357 1011.57 266.82 1010.88 266.631 1008.78C266.443 1006.68 267.823 1005.64 267.823 1005.64V1005.61Z" fill="#414042"/>
<path d="M294.424 644.097C293.828 662.792 295.334 701.093 307.379 720.321C307.379 720.321 314.782 743.596 316.413 754.732C318.044 765.868 331.03 787.166 345.083 785.755C361.614 784.092 377.299 743.408 362.744 696.701C362.744 696.701 367.982 661.757 368.923 644.128H294.392L294.424 644.097Z" fill="#414042"/>
<path d="M345.114 785.755C331.03 787.166 318.075 765.836 316.444 754.732C314.781 743.596 307.41 720.321 307.41 720.321C295.333 701.124 293.859 662.792 294.455 644.097H368.985C368.358 655.578 367.009 666.933 365.378 678.664C331.312 654.197 300.132 680.201 300.132 680.201C302.046 694.254 305.308 714.926 329.807 718.91C354.337 722.925 362.775 696.701 362.775 696.701C377.329 743.408 361.645 784.092 345.114 785.755Z" fill="#363436"/>
<path d="M307.41 720.321C295.333 701.124 293.859 662.792 294.455 644.097H367.982L361.52 676.092C329.022 656.142 300.164 680.201 300.164 680.201C302.077 694.254 305.339 714.926 329.838 718.91C340.723 720.698 348.471 716.494 353.678 711.287C350.447 715.804 345.428 720.008 337.774 722.862C320.584 729.23 323.376 757.68 327.203 776.188C321.463 769.444 317.353 760.629 316.475 754.701C314.813 743.565 307.441 720.29 307.441 720.29L307.41 720.321Z" fill="url(#paint1_linear_630_58)"/>
<path d="M186.454 276.37C199.221 278.408 211.266 276.495 214.623 275.805C216.85 270.88 218.136 263.101 217.164 250.867L243.889 249.017C243.889 249.017 243.889 263.885 248.783 272.95C250.571 273.107 261.926 274.519 274.755 277.405C274.755 277.405 249.379 387.067 186.485 276.37H186.454Z" fill="#D57C3F"/>
<path d="M48.8424 255.133C69.1376 260.78 171.272 279.099 171.272 279.099L164.309 330.636C164.309 330.636 42.506 298.892 27.8257 295.316C10.4478 291.081 6.80908 278.377 6.80908 278.377L48.811 255.102L48.8424 255.133Z" fill="#DD915D"/>
<path d="M171.272 279.099C171.272 279.099 162.677 277.561 150.004 275.24C150.13 277.844 151.636 308.741 144.39 313.572C139.057 317.117 80.2731 306.514 46.019 299.958C84.0686 309.745 164.34 330.668 164.34 330.668L171.303 279.13L171.272 279.099Z" fill="#D57C3F"/>
<path d="M243.889 249.017C243.889 249.017 243.889 256.137 245.489 263.54C241.098 264.669 236.392 265.485 231.405 265.893C226.417 266.3 221.649 266.238 217.132 265.799C217.571 261.752 217.634 256.859 217.164 250.899L243.889 249.048V249.017Z" fill="#C66B2B"/>
<path d="M306.72 180.917C306.72 180.917 313.37 174.11 320.867 182.705C328.364 191.299 317.134 214.637 299.066 210.716L306.688 180.885L306.72 180.917Z" fill="#D57C3F"/>
<path d="M141.598 196.13C141.598 196.13 133.693 190.672 128.078 200.459C122.463 210.277 138.179 231.137 155.086 223.985L141.598 196.099V196.13Z" fill="#D57C3F"/>
<path d="M310.798 117.616C310.798 117.616 320.835 187.912 290.22 228.816C290.22 228.816 268.67 256.2 230.777 259.682C194.61 263.007 169.202 241.049 169.202 241.049C169.202 241.049 135.638 218.747 121.491 142.209L310.798 117.585V117.616Z" fill="#DD915D"/>
<path d="M121.491 142.24C122.181 145.941 122.902 149.517 123.686 152.999C174.064 150.835 246.461 144.53 312.084 132.735C311.644 123.451 310.798 117.647 310.798 117.647L121.491 142.271V142.24Z" fill="#D57C3F"/>
<path d="M153.392 134.147C153.392 134.147 184.886 155.101 243.983 140.922C243.983 140.922 198.97 142.02 183.411 130.916L153.392 134.147Z" fill="#603312"/>
<path d="M272.811 185.34C288.307 183.928 301.607 190.39 302.579 199.832C303.552 209.274 291.757 218.057 276.293 219.5C260.797 220.911 247.497 214.449 246.524 205.008C245.552 195.566 257.346 186.783 272.811 185.34Z" fill="url(#paint2_radial_630_58)"/>
<path d="M174.754 196.162C189.873 192.68 204.02 197.322 206.373 206.544C208.725 215.767 198.343 226.055 183.223 229.537C168.104 233.019 153.957 228.377 151.604 219.154C149.251 209.932 159.634 199.643 174.754 196.162Z" fill="url(#paint3_radial_630_58)"/>
<path d="M258.601 122.321C258.601 122.321 271.242 109.617 288.401 122.666C288.401 122.666 272.529 116.706 258.601 122.321Z" fill="#9A410A"/>
<path d="M182.22 129.348C182.22 129.348 167.257 119.185 153.016 135.12C153.016 135.12 167.414 126.368 182.22 129.348Z" fill="#852900"/>
<path d="M230.871 194.907C230.871 194.907 216.693 198.89 221.116 203.219C225.539 207.548 237.678 194.75 230.871 194.907Z" fill="#C66B2B"/>
<path d="M292.762 147.667C295.522 159.587 284.386 183.52 268.859 171.569C261.017 165.546 260.986 152.278 270.961 148.2C278.395 145.157 286.08 148.2 289.625 151.713C290.817 150.458 291.789 149.016 292.762 147.667Z" fill="#603312"/>
<path d="M262.115 166.456C261.268 157.61 267.165 149.831 275.352 149.078C283.508 148.325 290.817 154.913 291.664 163.758C292.511 172.604 286.582 180.383 278.427 181.136C270.271 181.889 262.993 175.302 262.146 166.456H262.115Z" fill="white"/>
<path d="M263.087 167.366C262.429 160.465 266.977 154.411 273.188 153.815C279.462 153.25 285.045 158.363 285.735 165.295C286.394 172.196 281.846 178.25 275.603 178.846C269.361 179.411 263.746 174.267 263.087 167.366Z" fill="#603312"/>
<path d="M270.365 159.555C274.255 159.21 277.705 162.378 278.144 166.676C278.552 170.942 275.729 174.706 271.871 175.082C267.981 175.459 264.499 172.228 264.091 167.962C263.684 163.664 266.475 159.9 270.365 159.555Z" fill="#4C2502"/>
<path d="M281.25 154.097L278.427 161.72L284.198 158.896L281.25 154.097Z" fill="white"/>
<path d="M145.958 163.476C145.958 175.678 162.206 196.663 174.659 181.701C180.933 174.141 178.016 161.186 167.382 159.335C159.446 157.955 153.862 162.002 149.973 166.738C148.53 165.766 147.244 164.574 145.989 163.445L145.958 163.476Z" fill="#603312"/>
<path d="M180.086 175.302C178.926 166.487 171.397 160.151 163.273 161.155C155.149 162.159 149.502 170.126 150.663 178.941C151.824 187.755 159.352 194.091 167.476 193.056C175.601 192.052 181.247 184.085 180.086 175.27V175.302Z" fill="white"/>
<path d="M179.459 176.4C178.55 169.53 172.746 164.574 166.536 165.358C160.293 166.143 155.964 172.322 156.874 179.223C157.784 186.093 163.587 191.049 169.798 190.296C176.009 189.512 180.338 183.301 179.428 176.431L179.459 176.4Z" fill="#603312"/>
<path d="M170.582 170.314C166.723 170.785 164.057 174.643 164.59 178.909C165.155 183.175 168.762 186.249 172.621 185.747C176.51 185.277 179.177 181.419 178.612 177.153C178.047 172.886 174.471 169.812 170.582 170.283V170.314Z" fill="#4C2502"/>
<path d="M158.725 167.303L163.21 174.141L156.905 172.604L158.725 167.303Z" fill="white"/>
<path d="M275.414 306.326C275.414 306.326 257.535 343.905 204.272 341.584C204.272 341.584 192.163 341.709 197.778 350.492C203.393 359.275 264.279 358.083 275.414 306.326Z" fill="#E11A27"/>
<path d="M222.591 949.966C222.591 949.966 193.23 995.638 189.215 1014.3C185.168 1033 189.874 1045.51 215.188 1041.4C240.502 1037.29 260.138 997.583 264.655 984.314C269.172 971.046 261.205 956.365 256.625 945.167L222.591 949.935V949.966Z" fill="#EFD7B8"/>
<path d="M241.976 981.554L244.58 976.002C231.719 965.964 218.701 967.658 212.239 969.446C210.639 972.143 209.322 974.245 207.659 977.194C223.218 969.979 241.976 981.554 241.976 981.554Z" fill="white"/>
<path d="M248.438 946.359L256.656 945.198C261.236 956.397 269.204 971.046 264.687 984.346C264.436 985.067 264.153 985.883 263.808 986.761C262.93 978.26 260.17 963.141 251.167 951.096C249.944 949.465 249.065 947.865 248.469 946.359H248.438Z" fill="#E6C090"/>
<path d="M229.679 756.394C235.357 755.924 240.376 759.939 240.846 765.366C241.317 770.792 237.114 775.56 231.436 775.999C225.758 776.47 220.739 772.455 220.269 767.028C219.798 761.601 224.002 756.834 229.679 756.394Z" fill="white"/>
<path d="M177.389 708.401C177.389 708.401 188.211 752.756 189.12 768.157C191.943 816.213 205.651 901.754 219.108 955.675C219.108 955.675 235.263 960.318 257.597 947.865C257.597 947.865 251.637 850.247 244.485 792.687C244.485 792.687 240.878 771.733 239.404 755.391C237.929 739.048 240.282 701.344 240.282 701.344L177.389 708.401Z" fill="#414042"/>
<path d="M229.397 761.382C226.574 747.204 219.265 747.8 219.265 747.8C204.899 748.552 193.261 747.078 185.607 745.541C182.125 727.912 177.389 708.401 177.389 708.401L240.282 701.344C240.282 701.344 237.929 739.079 239.404 755.391C240.878 771.702 244.485 792.687 244.485 792.687C251.637 850.279 257.597 947.865 257.597 947.865C255.37 949.119 253.205 950.186 251.104 951.096C248.438 916.591 232.126 775.027 229.397 761.382Z" fill="#363436"/>
<path d="M347.561 444.095C337.774 437.256 334.669 434.496 326.137 427.187V436.504C338.057 446.039 345.71 450.619 345.71 450.619L347.561 444.095Z" fill="#3C2415"/>
<path d="M261.863 271.477C261.863 271.477 268.639 312.882 238.682 317.901C206.498 323.265 200.539 273.265 200.539 273.265C200.539 273.265 163.336 270.253 149.973 275.084C149.973 275.084 167.32 412.79 151.949 514.077C136.548 615.364 123.906 668.439 126.729 716.181C126.729 716.181 160.042 742.028 200.413 742.907C240.784 743.785 267.227 701.877 278.457 690.114C289.655 678.351 338.464 646.011 373.753 688.201C373.753 688.201 389.971 712.762 380.78 727.693C380.78 727.693 392.668 723.396 383.948 674.869C375.228 626.343 371.84 608.244 369.331 580.075C366.821 551.907 353.584 504.604 344.267 476.122C337.178 454.54 317.793 336.879 319.079 292.556C319.079 292.556 301.513 274.174 261.863 271.445V271.477Z" fill="#FFDD00"/>
<path d="M292.353 479.415C292.353 479.415 323.502 553.789 362.085 539.454C359.23 527.22 355.843 514.579 352.455 502.847L301.921 470.695C301.921 470.695 199.723 400.964 164.936 272.637C161.485 272.857 158.223 273.202 155.369 273.704C160.168 296.163 187.772 403.065 292.353 479.415Z" fill="#E8BA08"/>
<path d="M168.888 269.688C168.888 269.688 194.202 392.839 311.738 474.898L303.865 477.094C303.865 477.094 198.907 414.232 161.171 270.065L168.857 269.688H168.888Z" fill="#3C2415"/>
<path d="M300.164 474.992C300.164 474.992 336.928 460.437 347.436 444C347.436 444 380.843 467.307 387.618 484.12C394.363 500.933 361.363 532.709 340.723 528.318C320.083 523.926 300.195 474.961 300.195 474.961L300.164 474.992Z" fill="#D97385"/>
<path d="M340.692 528.349C360.924 532.647 393.077 502.157 387.932 485.124C383.698 491.68 371.15 508.556 350.886 515.645C325.51 524.554 300.133 474.992 300.133 474.992C300.133 474.992 320.02 523.958 340.66 528.349H340.692Z" fill="#D35270"/>
<path d="M235.388 328.002C271.713 326.433 275.226 290.737 273.909 272.826C270.144 272.23 266.161 271.728 261.895 271.445C261.895 271.445 268.67 312.851 238.713 317.87C206.498 323.234 200.57 273.233 200.57 273.233C200.57 273.233 195.488 272.826 188.399 272.543C190.563 287.412 199.848 329.508 235.388 327.97V328.002Z" fill="#FFF3C4"/>
<path d="M157.69 543.092C140.532 597.516 136.516 630.421 129.051 661.005C133.285 624.367 142.069 579.165 151.95 514.077C152.075 513.293 152.169 512.508 152.295 511.756C156.498 503.945 160.858 499.083 165.25 467.056C170.833 426.215 180.495 470.789 157.69 543.124V543.092Z" fill="#F6CB00"/>
<path d="M205.589 325.147C205.589 325.147 212.678 361.534 269.58 369.501C269.58 369.501 283.35 370.16 281.029 362.349C279.712 357.927 234.949 357.048 205.62 325.178L205.589 325.147Z" fill="#F6CB00"/>
<path d="M238.244 598.237C232.033 573.111 207.628 572.609 203.017 572.766C212.208 572.327 301.67 567.967 317.166 564.705C328.803 562.289 349.318 542.621 360.203 531.486C364.626 549.272 368.17 566.806 369.362 580.075C370.209 589.611 371.182 597.986 372.405 606.8C368.014 595.257 362.054 583.62 354.839 579.165C338.622 569.222 305.842 574.805 296.933 607.647C290.158 632.71 292.667 664.58 294.204 678.257C286.958 682.46 281.406 687.008 278.457 690.083C271.776 697.109 259.668 714.832 242.447 727.818C246.556 702.191 244.705 624.241 238.275 598.237H238.244Z" fill="#E8BA08"/>
<path d="M248.908 210.152C248.908 210.152 230.809 217.304 201.73 214.732C201.73 214.732 206.153 238.759 227.641 236.658C249.159 234.556 248.877 210.152 248.877 210.152H248.908Z" fill="#6F0000"/>
<path d="M206.404 219.656C206.404 219.656 205.338 219.28 204.021 214.951C225.194 216.488 240.188 212.912 246.117 211.124C245.96 213.194 245.238 215.17 244.517 215.955C244.517 215.955 229.554 221.601 206.404 219.656Z" fill="white"/>
<path d="M213.493 233.49C223.813 226.934 233.977 228.784 240.407 231.325C237.364 234.054 233.255 236.125 227.64 236.658C221.712 237.222 217.069 235.811 213.462 233.49H213.493Z" fill="#F6A2AD"/>
<path d="M297.873 734.531C298.752 674.43 309.574 594.222 356.187 553.381C384.449 528.631 412.775 530.2 413.057 530.2L413.245 527.565C412.053 527.471 383.414 525.902 354.305 551.436C328.175 574.334 296.681 624.649 295.082 734.5H297.873V734.531Z" fill="#231F20"/>
<path d="M260.263 737.605L262.992 737.103C246.649 653.476 215.909 597.045 171.617 569.41C133.881 545.852 99.7523 553.004 99.4072 553.067L100.035 555.639C100.348 555.576 133.442 548.707 170.174 571.668C213.775 598.927 244.077 654.731 260.263 737.574V737.605Z" fill="#231F20"/>
<path d="M277.296 568.124L292.196 734.562L266.411 736.664L251.511 570.225L277.296 568.124Z" fill="url(#paint4_linear_630_58)"/>
<path d="M277.296 568.124L278.456 581.11C269.015 583.275 260.89 583.494 252.672 583.243L251.511 570.225L277.327 568.124H277.296Z" fill="#7B4481"/>
<path d="M263.368 702.63C272.497 702.191 281.123 701.438 289.184 700.497C291.035 697.485 288.714 695.258 288.714 695.258C280.652 696.199 272.057 696.952 262.961 697.391C262.961 697.391 260.89 700.12 263.368 702.63Z" fill="#231F20"/>
<path d="M285.515 706.582L286.33 715.773C286.33 715.773 304.775 715.867 307.127 742.091L315.158 831.646C315.158 831.646 322.623 904.828 311.55 910.129L312.272 918.253C312.272 918.253 331.783 907.557 325.007 831.991L316.726 739.581C316.726 739.581 313.495 706.394 285.483 706.582H285.515Z" fill="url(#paint5_linear_630_58)"/>
<path d="M267.604 708.025L268.419 717.216C268.419 717.216 250.257 720.29 252.578 746.482L260.609 836.038C260.609 836.038 266.255 909.376 278.112 912.827L278.834 920.951C278.834 920.951 257.691 913.548 250.947 837.983L242.666 745.572C242.666 745.572 239.937 712.322 267.572 708.025H267.604Z" fill="url(#paint6_linear_630_58)"/>
<path d="M312.429 894.445L299.003 744.443C299.003 744.443 294.267 730.234 277.328 731.614C260.389 732.994 261.142 747.517 261.142 747.517L274.536 897.299C274.536 897.299 292.541 887.952 312.429 894.476V894.445Z" fill="url(#paint7_linear_630_58)"/>
<path d="M277.421 904.452L310.483 901.754C312.585 901.597 314.467 903.103 314.655 905.11L315.879 918.787C316.067 920.794 314.467 922.582 312.365 922.771L279.303 925.468C277.202 925.625 275.32 924.119 275.131 922.112L273.908 908.435C273.72 906.428 275.32 904.64 277.421 904.452Z" fill="#3C2415"/>
<path d="M277.359 724.807L278.99 724.681C285.859 724.117 291.976 729.01 292.541 735.566L324.442 1091.91C325.038 1098.46 319.894 1104.27 313.024 1104.83L311.393 1104.96C304.523 1105.52 298.407 1100.63 297.842 1094.07L265.941 737.73C265.345 731.174 270.489 725.371 277.359 724.807Z" fill="url(#paint8_linear_630_58)"/>
<path d="M280.621 754.199L281.719 754.105C286.33 753.728 290.502 757.963 290.972 763.484L317.918 1064.62C318.419 1070.14 315.063 1074.97 310.452 1075.34L309.354 1075.44C304.743 1075.81 300.571 1071.58 300.1 1066.06L273.155 764.927C272.653 759.406 276.01 754.575 280.621 754.199Z" fill="#594A42"/>
<path d="M261.141 747.517L260.451 739.801C259.604 730.484 266.945 722.203 276.731 721.419L279.053 721.231C288.839 720.447 297.528 727.41 298.344 736.727L299.034 744.443C299.034 744.443 293.262 738.044 279.429 739.173C265.596 740.303 261.173 747.517 261.173 747.517H261.141Z" fill="#B897C0"/>
<path d="M221.116 563.638C221.116 563.638 298.658 557.333 310.076 556.423C321.494 555.482 330.403 542.088 330.403 542.088C330.403 542.088 353.678 511.41 391.759 505.137C429.84 498.863 470.618 504.321 470.618 504.321L469.458 519.534C469.458 519.534 408.321 514.767 389.814 521.134C354.368 533.305 341.821 553.161 341.821 553.161C341.821 553.161 332.442 568.908 315.503 570.288C298.533 571.668 216.85 578.318 216.85 578.318C216.85 578.318 201.511 582.208 182.282 566.147C182.282 566.147 161.987 549.679 122.557 542.872C101.729 539.265 43.7919 554.165 43.7919 554.165L39.9336 539.359C39.9336 539.359 79.1752 527.376 117.821 527.439C156.466 527.502 191.912 553.412 191.912 553.412C191.912 553.412 206.561 564.924 221.116 563.732V563.638Z" fill="#E6E7E8"/>
<path d="M252.076 576.781C260.326 577.032 268.419 576.813 277.892 574.648C281.029 565.74 276.355 557.553 276.355 557.553C266.349 556.078 255.809 557.835 250.633 560.125C250.633 560.125 246.681 569.096 252.076 576.781Z" fill="#B897C0"/>
<path d="M404.275 518.531C404.275 518.531 400.354 520.695 399.068 518.531C397.782 516.366 396.903 508.587 398.629 503.913C398.629 503.913 400.636 499.835 405.185 504.603C409.733 509.371 404.275 518.499 404.275 518.499V518.531Z" fill="url(#paint9_linear_630_58)"/>
<path d="M402.676 503.694C402.676 503.694 403.523 501.153 407.852 500.996C412.18 500.839 414.094 502.972 414.094 502.972C414.094 502.972 412.494 512.163 414.157 518.625C415.819 525.087 422.124 527.878 422.124 527.878C470.87 527.816 485.425 535.03 490.914 536.912C496.404 538.794 491.918 541.304 491.918 541.304C473.505 534.591 414.282 534.497 414.282 534.497L414.345 534.089C414.313 534.34 414.282 534.497 414.282 534.497C404.181 528.098 402.927 518.468 402.927 518.468C401.609 511.975 402.644 503.662 402.644 503.662L402.676 503.694Z" fill="url(#paint10_linear_630_58)"/>
<path d="M402.958 518.468C402.017 513.794 402.268 508.148 402.487 505.388L410.172 504.886C410.172 504.886 410.016 515.425 410.361 517.903C410.863 521.793 414.815 527.126 418.767 529.008C418.767 529.008 415.599 530.827 414.344 534.058C414.313 534.152 414.25 534.278 414.156 534.372C404.181 527.973 402.958 518.437 402.958 518.437V518.468Z" fill="#ADAFB2"/>
<path d="M394.3 490.613L407.6 488.856C411.678 488.323 415.442 491.052 416.007 494.91C416.572 498.769 413.717 502.376 409.639 502.909L396.339 504.666C392.261 505.199 388.497 502.47 387.933 498.612C387.368 494.754 390.222 491.146 394.3 490.613Z" fill="#D1D3D4"/>
<path d="M394.206 500.808L410.047 498.737C412.556 498.424 414.658 497.106 416.038 495.287C416.383 499.02 413.56 502.439 409.639 502.941L396.339 504.697C392.575 505.199 389.062 502.909 388.121 499.49C389.846 500.588 392.01 501.121 394.237 500.808H394.206Z" fill="#A8A8A8"/>
<path d="M502.959 504.164C502.959 504.164 454.558 496.573 416.132 500.024C416.132 500.024 413.466 500.557 413.434 504.133C413.434 507.709 413.277 513.857 413.591 517.401C413.905 520.946 416.947 520.695 416.947 520.695C416.947 520.695 483.354 524.24 501.234 526.655C501.234 526.655 505.97 526.592 507.382 523.236L508.856 509.528C508.856 509.528 508.793 505.011 502.928 504.196L502.959 504.164Z" fill="#3C2415"/>
<path d="M103.642 527.973C103.642 527.973 102.356 525.589 98.0587 526.153C93.7926 526.718 92.2556 529.102 92.2556 529.102C92.2556 529.102 95.4551 537.885 94.9846 544.535C94.5141 551.185 88.7737 554.949 88.7737 554.949C40.7177 562.76 27.6372 572.201 22.5869 574.962C17.5053 577.722 22.3673 579.479 22.3673 579.479C39.3375 569.912 97.6509 560.25 97.6509 560.25L97.5254 559.842C97.6195 560.093 97.6509 560.25 97.6509 560.25C106.465 552.314 105.995 542.621 105.995 542.621C106.152 536.003 103.642 528.004 103.642 528.004V527.973Z" fill="url(#paint11_linear_630_58)"/>
<path d="M92.2871 555.545C95.8631 553.067 98.7803 547.17 98.5921 543.249C98.498 541.304 96.5218 531.172 95.6435 526.718C96.3336 526.467 97.1178 526.247 98.0588 526.153C102.325 525.589 103.642 527.973 103.642 527.973C103.642 527.973 106.12 535.971 105.995 542.59C105.995 542.59 106.466 552.189 97.7765 560.125C97.6511 559.937 97.557 559.842 97.557 559.811C95.7376 556.8 92.2871 555.545 92.2871 555.545Z" fill="#A1A1A1"/>
<path d="M4.9268 544.597C4.9268 544.597 51.2889 529.321 89.7776 526.498C89.7776 526.498 92.5067 526.592 93.1654 530.105C93.8241 533.619 95.0475 539.673 95.3612 543.186C95.6749 546.73 92.6321 546.981 92.6321 546.981C92.6321 546.981 27.8255 561.16 10.6358 566.461C10.6358 566.461 5.93058 567.151 3.95439 564.077L0.0333666 550.84C0.0333666 550.84 -0.719469 546.354 4.9268 544.629V544.597Z" fill="#3C2415"/>
<path d="M430.78 491.836C434.67 494.942 441.54 507.207 441.728 511.912C441.853 515.08 441.257 521.95 440.034 521.95C439.626 521.95 437.869 521.856 437.869 521.856C445.115 527.251 450.197 523.675 450.197 523.675C456.534 527.69 460.423 524.647 460.423 524.647C467.136 528.129 470.336 524.741 470.336 524.741C474.79 526.278 476.546 525.557 476.546 525.557C480.938 524.271 481.628 516.743 481.628 516.743C482.161 510.124 480.907 500.902 480.907 500.902C480.907 500.902 478.178 497.075 475.009 497.075C475.009 497.075 472.814 498.392 470.932 498.079C469.049 497.765 466.258 495.601 462.713 497.828C462.713 497.828 461.772 498.204 459.921 497.514C458.071 496.824 453.899 494.816 450.856 497.922C450.856 497.922 450.197 498.361 448.566 498.267C446.935 498.173 444.488 495.444 440.128 494.942C436.144 494.503 430.78 491.774 430.78 491.774V491.836Z" fill="#DD915D"/>
<path d="M476.547 525.557C476.547 525.557 474.79 526.278 470.336 524.741C470.336 524.741 467.136 528.129 460.423 524.647C460.423 524.647 456.502 527.69 450.197 523.675C450.197 523.675 445.116 527.251 437.87 521.856C437.87 521.856 439.626 521.981 440.034 521.95C440.693 521.95 441.163 520.036 441.446 517.746C442.136 519.942 442.355 521.824 445.116 521.918C451.766 522.169 449.57 502.69 449.57 502.69C453.836 514.17 449.852 524.24 455.844 523.267C461.835 522.263 460.329 502.909 460.329 502.909C461.396 505.607 461.898 514.453 462.023 516.837C462.149 519.221 462.556 522.514 465.411 523.424C468.265 524.334 471.183 523.173 471.873 517.527C472.563 511.881 470.838 503.348 470.838 503.348C470.838 503.348 474.696 513.01 473.535 520.758C473.535 520.758 473.284 523.8 477.08 523.267C479.025 522.985 480.562 519.534 481.597 516.209C481.597 516.366 481.597 516.554 481.597 516.743C481.597 516.743 480.907 524.24 476.515 525.557H476.547Z" fill="#D57C3F"/>
<path d="M373.252 104.63C344.738 92.271 329.336 80.4452 329.336 80.4452C320.208 60.0874 299.505 20.7205 287.083 13.004C216.881 -18.4895 141.284 15.7957 123.906 26.8059C103.203 39.9491 95.7377 105.163 95.7377 105.163C95.7377 105.163 69.5766 125.584 48.3718 135.622C44.4194 137.504 43.5724 140.044 45.58 142.868C46.9602 141.268 51.0067 140.358 61.2013 142.491C83.3159 147.134 247.528 140.107 360.861 112.252C360.861 112.252 371.934 110.119 374.914 113.319C378.459 109.837 378.365 106.826 373.252 104.63Z" fill="#EFD7B8"/>
<path d="M96.7415 112.503C121.93 92.0197 124 99.5167 127.859 92.0197L110.073 93.1803C110.073 93.1803 133.787 81.0723 129.051 76.7435L106.528 84.2404C106.528 84.2404 131.717 69.2465 124.596 66.9253L100.662 76.869C97.212 92.3334 95.7377 105.194 95.7377 105.194C95.7377 105.194 69.5766 125.615 48.3718 135.653C44.4194 137.535 43.5724 140.075 45.58 142.899C46.9602 141.299 51.0067 140.389 61.2013 142.522C62.6443 142.836 64.7459 143.087 67.3809 143.275C73.1526 135.339 82.7513 123.858 96.7415 112.503Z" fill="#E7C394"/>
<path d="M286.236 12.6274C223.626 -15.0078 156.874 9.39651 131.184 22.6965C152.012 21.4732 201.95 18.2423 237.177 13.5371C257.095 10.8708 273.783 11.31 286.236 12.6274Z" fill="#F7ECDF"/>
<path d="M321.243 63.6318C243.136 77.0887 151.51 84.7111 98.6234 86.7814C96.6158 97.4466 95.7375 105.163 95.7375 105.163C95.7375 105.163 95.6434 105.257 95.4238 105.414C148.122 104.63 248.281 94.5607 329.65 80.696C329.43 80.5392 329.336 80.4451 329.336 80.4451C327.203 75.6771 324.411 69.8427 321.243 63.6318Z" fill="#D97385"/>
<path d="M95.7375 105.163C95.7375 105.163 95.6434 105.257 95.4238 105.414C98.9057 105.351 102.576 105.257 106.465 105.132C122.589 93.9019 124.596 98.4189 127.89 92.0198L110.104 93.1804C110.104 93.1804 117.162 89.5731 122.808 85.5894C114.119 86.0912 106.026 86.499 98.6547 86.7813C96.6472 97.4465 95.7689 105.163 95.7689 105.163H95.7375Z" fill="#D55F77"/>
<path d="M360.234 107.829C246.901 135.715 82.6883 142.71 60.5737 138.068C52.8258 136.437 47.6187 137.252 44.921 138.444C44.1996 139.793 44.4191 141.299 45.5484 142.867C46.9286 141.268 50.9751 140.358 61.1697 142.491C83.2843 147.133 247.497 140.107 360.83 112.252C360.83 112.252 371.903 110.119 374.883 113.319C376.231 112.001 377.047 110.746 377.267 109.554C371.463 105.414 360.202 107.829 360.202 107.829H360.234Z" fill="#F7ECDF"/>
<path d="M105.775 91.0788C104.928 91.1729 103.83 91.5179 102.576 92.0512C103.736 91.1729 104.614 90.5141 105.022 90.2318C107.249 88.7262 116.346 86.5304 122.463 83.7386C128.611 80.9469 130.242 79.0334 130.023 76.8377C129.803 74.6105 125.945 75.1124 123.278 75.9907C120.612 76.9004 104.269 80.3195 100.474 81.9507C100.066 82.1389 99.5014 82.4212 98.8113 82.829C99.9719 81.9507 100.819 81.3233 101.164 81.041C103.36 79.4726 112.362 77.0573 118.416 74.1087C124.47 71.1601 126.07 69.2152 125.788 66.9881C125.506 64.761 121.647 65.357 119.012 66.3294C117.977 66.7058 114.84 67.5214 111.17 68.4938C112.77 67.0509 113.209 65.8275 112.99 64.5414C112.613 62.3457 108.786 63.0671 106.183 64.165C103.579 65.2315 87.5188 69.7171 83.8487 71.6306C80.1786 73.544 65.1847 83.4563 65.1847 83.4563C56.5271 89.1967 43.4465 122.604 41.5644 127.528C41.5644 127.528 0.315327 243.151 6.8399 278.409C6.8399 278.409 10.4472 291.113 27.8566 295.347L48.8732 255.165C48.8732 255.165 58.3464 189.668 65.5611 134.178C79.865 121.286 89.1813 111.97 93.1651 107.861C97.4625 104.002 105.618 99.3599 109.351 98.1366C112.488 97.1014 121.804 95.9408 124.533 95.188C127.231 94.4351 129.74 92.3648 128.391 90.4828C127.043 88.6007 111.766 90.5455 105.775 91.1101V91.0788Z" fill="#DD915D"/>
<path d="M105.022 90.2003C105.399 89.9494 105.963 89.6671 106.685 89.3848C99.9407 90.8904 90.6558 98.356 87.6758 100.865C92.3183 97.6973 98.3409 93.8077 102.544 92.051C103.705 91.1727 104.583 90.514 104.991 90.2317L105.022 90.2003Z" fill="#D57C3F"/>
<path d="M101.196 81.0413C102.043 80.4454 103.893 79.7239 106.215 78.877C92.9772 81.9824 80.3672 95.502 80.3672 95.502C80.3672 95.502 93.3222 86.0602 98.843 82.8293C100.004 81.951 100.851 81.3237 101.196 81.0413Z" fill="#D57C3F"/>
<path d="M111.202 68.4937C111.672 68.086 112.017 67.6782 112.3 67.3018C109.414 68.0546 98.6231 70.815 96.1451 71.5051C93.2592 72.2893 89.4009 75.1124 89.4009 75.1124C81.2138 81.2919 76.9478 85.3697 75.0029 87.3773C80.5865 83.3935 93.5101 74.2341 96.4274 72.8853C98.7172 71.8187 105.587 69.9994 111.233 68.4937H111.202Z" fill="#D57C3F"/>
<defs>
<linearGradient id="paint0_linear_630_58" x1="359.811" y1="847.068" x2="361.964" y2="872.29" gradientUnits="userSpaceOnUse">
<stop stop-color="#9B9DA0"/>
<stop offset="1" stop-color="#7D7E81"/>
</linearGradient>
<linearGradient id="paint1_linear_630_58" x1="294.329" y1="710.158" x2="367.95" y2="710.158" gradientUnits="userSpaceOnUse">
<stop stop-color="#363436"/>
<stop offset="1" stop-color="#231F20"/>
</linearGradient>
<radialGradient id="paint2_radial_630_58" cx="0" cy="0" r="1" gradientUnits="userSpaceOnUse" gradientTransform="translate(292.893 200.341) rotate(174.74) scale(28.0422 17.173)">
<stop stop-color="#DA8159"/>
<stop offset="1" stop-color="#DD915D"/>
</radialGradient>
<radialGradient id="paint3_radial_630_58" cx="0" cy="0" r="1" gradientUnits="userSpaceOnUse" gradientTransform="translate(190.859 210.374) rotate(167.03) scale(28.0422 17.173)">
<stop stop-color="#DA8159"/>
<stop offset="1" stop-color="#DD915D"/>
</radialGradient>
<linearGradient id="paint4_linear_630_58" x1="275.213" y1="690.344" x2="272.518" y2="658.777" gradientUnits="userSpaceOnUse">
<stop stop-color="#9E6EA7"/>
<stop offset="1" stop-color="#92589A"/>
</linearGradient>
<linearGradient id="paint5_linear_630_58" x1="310.757" y1="831.938" x2="315.664" y2="889.415" gradientUnits="userSpaceOnUse">
<stop stop-color="#9E6EA7"/>
<stop offset="1" stop-color="#92589A"/>
</linearGradient>
<linearGradient id="paint6_linear_630_58" x1="264.617" y1="835.783" x2="269.519" y2="893.197" gradientUnits="userSpaceOnUse">
<stop stop-color="#9E6EA7"/>
<stop offset="1" stop-color="#92589A"/>
</linearGradient>
<linearGradient id="paint7_linear_630_58" x1="290.29" y1="860.288" x2="279.699" y2="736.239" gradientUnits="userSpaceOnUse">
<stop stop-color="#8F5396"/>
<stop offset="1" stop-color="#5E2363"/>
</linearGradient>
<linearGradient id="paint8_linear_630_58" x1="290.155" y1="854.286" x2="280.175" y2="737.395" gradientUnits="userSpaceOnUse">
<stop stop-color="#493A31"/>
<stop offset="1" stop-color="#33241C"/>
</linearGradient>
<linearGradient id="paint9_linear_630_58" x1="401.658" y1="511.276" x2="395.137" y2="510.857" gradientUnits="userSpaceOnUse">
<stop stop-color="#6F7173"/>
<stop offset="1" stop-color="#7D7E81"/>
</linearGradient>
<linearGradient id="paint10_linear_630_58" x1="447.95" y1="523.222" x2="446.682" y2="501.734" gradientUnits="userSpaceOnUse">
<stop stop-color="#9B9DA0"/>
<stop offset="1" stop-color="#5F6062"/>
</linearGradient>
<linearGradient id="paint11_linear_630_58" x1="62.7586" y1="554.478" x2="60.4234" y2="533.395" gradientUnits="userSpaceOnUse">
<stop stop-color="#9B9DA0"/>
<stop offset="1" stop-color="#5F6062"/>
</linearGradient>
</defs>
</svg>
