<?xml version="1.0" encoding="UTF-8"?>
<svg id="Layer_1" data-name="Layer 1" xmlns="http://www.w3.org/2000/svg" viewBox="244 360 2040 1810">
  <defs>
    <style>
      .cls-1 {
        fill: #07455d;
      }

      .cls-1, .cls-2 {
        stroke-width: 0px;
      }

      .cls-2 {
        fill-opacity: 0;
      }
    </style>
  </defs>
  <rect class="cls-2" width="2520" height="2520"/>
  <g>
    <path class="cls-1" d="M1893.04,1392.82c-47.28,0-92.57,8.55-134.4,24.18-1.95-3.8-3.88-7.62-5.83-11.41-11.21-21.72-21.01-44.17-31.86-66.08-1.33-2.68-4.92-5.27-7.9-5.91-7.01-1.51-12.68-6.11-12.38-13.39.37-8.87-2.97-15.86-8.38-22.24-2.57-3.03-3.21-6.31-1.89-9.8,3.19-8.44,1.82-16.36-2.4-23.97-1.71-3.07-1.22-4.98,1.6-7.21,16.66-13.13,27.83-30.08,34.94-50.03,5.73-16.07,10.61-32.6,20.94-46.64.94-1.27,1.85-2.56,2.92-4.05,4.72,3.02,9.23,5.95,13.78,8.81,10.87,6.84,22.2,8.48,34.27,3.25,17.45-7.56,34.95-14.99,52.43-22.48,5.8-2.49,9.47-6.83,11.46-12.79,2.98-8.95,6.11-17.84,9.14-26.77,3.98-11.74,3.63-23.1-2.11-34.38-7.48-14.69-14.8-29.29-26.63-41.3-11.9-12.08-26.29-17.06-42.63-17.9-3.02-.16-6.12-.14-9.1.31-9.7,1.45-18.81-.27-28.28-2.76-7.47-1.97-15.85-1.26-23.74-.65-10.44.81-20.36-.55-30.16-4-15.23-5.36-30.49-10.61-45.76-15.85-31.61-10.84-61.35-25.61-89.79-42.99-11.32-6.91-22.68-12.67-36.26-14.09-3.76-.39-8.07-5.22-10.21-9.08-3.45-6.21-5.59-13.21-7.77-20.03-3.54-11.05-5.14-22.67-11.84-32.75-1.99-3-1.84-8.55-.67-12.3,2.95-9.46,3.04-18.34-.84-27.56-4.02-9.54-7.63-19.29-10.83-29.13-1.46-4.48-2.39-9.47-2.05-14.12.9-12.26-.92-24-5.56-35.21-3.9-9.41-1.37-16.76,5.63-23.26,15.2-14.11,32.57-24.73,52.19-31.41,9.22-3.14,18.7-5.52,28.16-7.86,1.66-.41,4.17.61,5.64,1.78,4.87,3.87,9.18,8.45,14.18,12.13,12.09,8.9,27.6,9.08,39.86.48,14.53-10.19,25.56-23.06,30.2-40.73,1.25-4.76,3.2-9.38,5.27-13.87.58-1.25,2.66-2.36,4.15-2.51,3.15-.31,6.4.38,9.56.1,8.34-.73,12.1-5.18,10.96-13.51-1.19-8.7-3.32-17.27-4.5-25.97-1.11-8.21-1.84-16.5-2.04-24.78-.06-2.35,1.77-6.07,3.72-6.92,8.64-3.81,11.1-10.4,10.32-19.04-.11-1.26-.02-2.54-.02-4.23,1.33-.14,2.54-.39,3.74-.36,14,.4,27.71-.84,41.07-5.56,8.28-2.92,11.8-6.52,12.84-15.31,3.24-27.23-4.36-51.49-19.9-73.69-31.55-45.05-74.3-73.31-127.43-86.98-56.32-14.49-112.9-15.01-169.82-5.17-14.31,2.48-28.59,5.49-42.61,9.26-16.72,4.49-19.56,12.28-10.55,27.12,8.19,13.5,18.67,25.15,30.59,35.45,2.52,2.18,3.14,4.22,2.33,7.46-4.14,16.59-2.13,33.12,1.75,49.37.07.28.13.56.19.85-.07,0-.14,0-.2-.02-1.1-.22-1.91-1.2-3.02-1.29-4.18-.32-4.78,6.88-5.14,10.17-.28.06-.56.13-.83.2-25.57-24.88-67.94-27.46-100-27.42-33.02.04-67.16,4.76-96,23.71-20.29,13.34-37.87,31.15-59.05,41.41-11.55,5.6-22.89,9.8-34.95,12.51-11.15,2.51-26.62,2.45-36.96,6.93,4.61,2.47,9.14,5.31,13.61,8.05-10.31-.82-21.22,5.94-31.42,7.69-13.19,2.25-26.54,3.37-39.97,4.83-19.48,2.12-48.68,6.17-65.85-5.83,23,26.72,54.03,33.8,83,44.21-13.84,4.81-27.26,10.79-39.99,18.76-3.38,2.11-6.96,3.95-10.59,5.61-24.11,11.07-46.36,25.08-66.91,41.86-3.58,2.92-7.7,5.16-11.44,7.9-12.1,8.87-24.31,17.59-36.14,26.8-17.65,13.74-35.01,27.86-52.5,41.81-2.87,2.29-5.61,4.8-8.68,6.79-3.66,2.37-7.44,4.71-11.47,6.32-5.99,2.38-10.48,6.39-13.32,11.87-7.34,14.16-15.17,28.15-14.61,45.01.41,12.07-4.64,22.17-13.63,30.03-9.8,8.57-17.06,18.49-19.59,31.54-.47,2.44-1.81,4.8-3.1,6.98-15.46,26.09-20.15,53.75-13.46,83.54,1.63,7.28,1.03,15.16.82,22.75-.26,9.13,1.78,16.82,10.39,21.52.28.15.52.38.81.51,16.96,7.7,29.17,21.02,42.34,33.73,26.1,25.17,53.53,49.06,85.63,66.68,8.1,4.45,13.56,10.29,16.59,19.3,11.44,34.09,23.48,67.97,35.17,101.98,5.66,16.47,11.16,32.99,16.45,49.58.57,1.8-.25,4.51-1.31,6.26-2.31,3.81-5.12,7.33-7.84,10.88-5.34,6.95-4.41,14.35-1.62,21.84.54,1.44,1.45,3.09,2.67,3.87,8.61,5.52,7.88,14.21,6.69,22.2-1,6.68-.09,12.66,1.96,18.76.35,1.03.84,2.32,1.67,2.84.61.39,1.16.8,1.68,1.24l-76.5,85.45c-65.28-51.31-147.61-81.91-237.08-81.91-212.08,0-384,171.92-384,384s171.92,384,384,384c152.23,0,283.78-88.59,345.89-217.02l129.47-12.66c3.6.38,7.25.58,10.95.58,44.79,0,82.86-28.79,96.71-68.87,4.77,2.4,10.09,3.12,15.84,2.42,23.15-2.83,46.31-5.7,69.42-8.81,14.26-1.91,28.43-4.44,42.68-6.4,8.89-1.23,15.56-4.54,17.2-14.4.18-1.08,2.39-2.39,3.8-2.61,8.21-1.26,16.48-2.11,24.7-3.31,20.21-2.95,37.14-13.31,53.62-24.41,4.87-3.28,6.93-8.62,6.95-14.61.04-10.29-2.38-19.96-7.25-29-3.39-6.29-8.46-11.11-14.99-13.63-13.24-5.11-26.45-10.74-40.19-14.02-20.17-4.82-38.28-13.21-54.71-25.59-9.58-7.22-18.95-14.71-28.75-21.61-6.04-4.25-9.05-10.25-11.38-16.72-.5-1.39.74-3.9,1.89-5.33,18.36-22.99,36.9-45.84,55.27-68.82,45.63-57.08,90.79-114.54,136.94-171.19,31.81-39.05,64.96-77,97.5-115.44.41-.49.78-1.01,1.74-2.24,2.26,5.29,5.31,8.06,10.44,8.37,1.08.07,2.3,2,3.02,3.31,2.32,4.19,4.27,8.6,6.68,12.74,3.65,6.28,7.34,7.33,14.07,4.66,5.54-2.2,10.3-6.06,16.91-6.01,5.67.04,8.49.96,9.4,6.5,1.01,6.2,2.9,11.41,9.48,13.76,1.09.39,2.11,2.06,2.45,3.33,1.29,4.81,2.47,9.64.17,14.6-.51,1.11-.16,2.86.32,4.13,1.34,3.59,2.72,7.19,4.49,10.58,11.53,22.11,23.07,44.22,34.6,66.32-109.93,67.55-183.24,188.91-183.24,327.4,0,212.08,171.92,384,384,384s384-171.92,384-384-171.92-384-384-384ZM1759.89,1140.61c-2.08,2.94-4.15,5.87-6.22,8.81,1.73,2.17,3.75,4.14,5.96,5.86-2.21-1.72-4.23-3.69-5.96-5.86,2.08-2.94,4.15-5.87,6.23-8.81ZM1418.67,536.62c1.36.6,2.51,1.43,3.59,2.26-.08.42-.15.84-.23,1.26-2.23,11.27-6.44,22.22-16.77,28.5-11.34,6.89-23.71,9.36-36.52,3.23-3.32-1.59-6.72-3-9.95-4.74-.25-.13-.49-.25-.74-.38.79-.5,1.6-.99,2.42-1.47,18.76-10.89,50.07.2,58.19-28.65ZM1153.08,1496.43c1.26,47.48-1.81,94.87-2.66,142.31-.17,9.59-.88,19.16-1.06,28.75-.31,16.46-5.57,31.61-11.4,46.74-2.37,6.14-6.04,10.08-12,11.92-1.63.5-3.29.9-4.97,1.25-2.55-.19-5.12-.29-7.72-.29-2.84,0-5.65.12-8.43.35-1.7-1.07-3.2-2.61-4.55-4.54-3.95-5.64-5.51-11.98-7.01-18.61-12.95-57.18-26.11-114.31-39.45-171.39-1.06-4.54-.41-7.15,3.27-10.09,21.84-17.46,43.41-35.27,65.22-52.78,9.56-7.68,19.45-14.94,29.19-22.39.5.14,1.01.28,1.51.42,0,16.12-.36,32.25.07,48.36ZM1136.21,1773.47s-.03.11-.04.16c.01-.06.02-.11.04-.16h0ZM953.97,1424.44c-.33,5.63-2.14,11.29-5.14,17.45-12.26,25.19-25.43,49.67-41.31,72.73-5.94-6.35-12.1-12.51-18.45-18.45l64.9-71.74ZM678.19,1682.33l-23.2,25.91,83.34-228.99c15.6,5.86,30.62,12.91,44.95,21.04l-105.1,182.04ZM788.27,1503.19c10.88,6.44,21.35,13.5,31.36,21.15l-122.7,137.06,91.34-158.2ZM759.76,1683.53c.61.81,1.2,2.08,1.03,2.99-.68,3.55.44,6.18,2.37,8.34l-74.67,43.11c-1.24-1.96-2.57-3.85-3.98-5.67l71.66-60.13c-.31,3.85.78,7.62,3.6,11.36ZM698.07,1761.35c-.49-2.27-1.09-4.51-1.79-6.7l98.37-35.8c1.29,1.74,2.36,3.7,3.31,5.89,1.64,3.78,5.02,7.59,8.62,9.59,3.66,2.03,7.35,3.99,11.06,5.93l-119.58,21.08ZM826.14,1744.62c5.7,2.86,11.45,5.63,17.24,8.3,15.4,7.11,30.88,14.06,46.36,21.01h-178.62l-11.54-1.29c-.11-1.89-.27-3.77-.52-5.61l127.08-22.41ZM694.31,1749.24c-.88-2.15-1.86-4.24-2.94-6.28l76.52-44.18c7.19,5.18,14.47,10.24,21.77,15.26.16.11.29.22.45.33l-95.8,34.87ZM717.98,1868.32c-.86-4.92-.47-8.41,0-11.36l113.12,94.92-49.43,4.83-62.34-74.29c.36-3.26-.26-7.82-1.35-14.09ZM774.72,1957.39l-38.03,3.72-37.76-65.4c.78-.89,1.53-1.7,2.24-2.41,3.79-3.79,11.32-2.91,15.21-5.43l58.33,69.52ZM730.39,1961.72l-31.92,3.12-18.38-50.5c2.6-1.74,4.6-3.2,5.72-4.24,3.54-3.29,6.54-6.7,9.15-9.76l35.44,61.38ZM634.89,1879.85c1.24,2.31,4.66,4.36,8.42,6.25l3.31,18.78c-4.82,3.79-10.84,8.18-16.77,12.73v-65.32c1.63,1.88,2.91,3.6,3.6,4.99,3.36,6.72-1.92,16.33,1.44,22.57ZM630.08,1946.13c3.93-3.18,12.26-8.42,21.34-13.98l6.47,36.67-28.05,2.74v-25.23c.08-.07.16-.13.24-.2ZM649.7,1889.18c4.04,1.98,7.2,3.83,6.8,5.7-.3,1.38-2.07,3.36-4.78,5.77l-2.02-11.47ZM656.71,1928.92c6.53-3.98,13.09-7.96,18.42-11.35l17.42,47.85-28.9,2.83-6.94-39.33ZM649.13,1707.5c-2.19-.7-4.42-1.29-6.7-1.79l42.55-241.29c16.46,3.05,32.47,7.38,47.94,12.86l-83.79,230.22ZM636.75,1704.73c-2.27-.31-4.57-.51-6.9-.6v-244.99c16.83.15,33.34,1.62,49.45,4.3l-42.55,241.3ZM629.84,1977.35l29.05-2.84,20.4,115.7c-16.11,2.68-32.63,4.15-49.45,4.3v-117.16ZM664.65,1973.94l29.93-2.93,38.34,105.33c-15.47,5.49-31.48,9.81-47.94,12.86l-20.33-115.27ZM700.5,1970.44l33.05-3.23,49.73,86.13c-14.33,8.13-29.35,15.18-44.95,21.04l-37.83-103.94ZM739.85,1966.59l39.35-3.85,49.68,59.21c-12.74,10.52-26.33,20.04-40.62,28.5l-48.41-83.85ZM786.16,1962.06l51.12-5,31.09,26.09c-10.77,12.58-22.5,24.31-35.08,35.08l-47.13-56.17ZM845.31,1956.27l46.76-4.57c-6.19,9.37-12.85,18.4-19.98,27.04l-26.78-22.47ZM839.13,1951.09l-120.45-101.07c-.08-1.05-.28-2.14-.7-3.31-2.27-6.34-13.93-10.12-24.92-18.19l-5.36-4.5c-1.36-1.39-2.14-2.55-2.54-3.57,1.17-1.55,2.28-3.14,3.32-4.79l212.11,122.46c-1.47,2.49-2.99,4.95-4.53,7.4l-56.92,5.57ZM692.19,1811.15l28.37,2.8,203.96,74.24c-5.86,15.6-12.91,30.62-21.04,44.95l-211.29-121.99ZM743.69,1816.24l195.53,19.31c-3.04,16.21-7.32,31.98-12.72,47.23l-182.81-66.54ZM762.73,1779.7h139.82c5.91,2.66,11.82,5.33,17.71,8.02,8.08,3.69,15.75,4.26,23.88-.07.11-.06.23-.1.34-.15-.14,4.16-.36,8.3-.65,12.42l-181.09-20.22ZM852.31,1536.8c6.22,5.84,12.22,11.91,17.96,18.21-1.6,1.17-3.23,2.3-4.92,3.4-5.46-5.95-11.13-11.69-17.02-17.22l3.97-4.39ZM860.37,1561.5c-31.07,18.65-58.16,42.4-82.64,69.07-3.72,4.05-6.43,9.11-9.13,13.98-3.03,5.46-5.59,11.19-8.45,16.75l-79.34,66.58c-.23-.25-.47-.49-.7-.74l164.37-181.67c5.48,5.16,10.79,10.5,15.9,16.04ZM626.96,2106.07c-181.84,0-329.25-147.41-329.25-329.25s147.41-329.25,329.25-329.25c75.44,0,144.94,25.39,200.46,68.07l-3.95,4.41c-54.51-41.82-122.65-66.72-196.51-66.72-178.37,0-323.49,145.12-323.49,323.49s145.11,323.48,323.49,323.48c114.3,0,214.94-59.59,272.49-149.32l7.4-.72c-58.08,93.53-161.7,155.81-279.89,155.81ZM611.5,1705.72c-2.27.49-4.51,1.09-6.7,1.79l-83.79-230.22c15.47-5.49,31.48-9.81,47.94-12.86l42.55,241.29ZM574.63,1463.43c16.11-2.68,32.63-4.15,49.45-4.3v244.99c-2.33.09-4.63.3-6.9.6l-42.55-241.3ZM599.39,1709.48c-2.15.88-4.24,1.86-6.28,2.93l-122.46-212.11c14.33-8.13,29.35-15.18,44.95-21.04l83.79,230.22ZM588.12,1715.3c-1.96,1.24-3.85,2.57-5.67,3.98l-157.41-187.59c12.74-10.52,26.33-20.04,40.62-28.5l122.46,212.11ZM578.02,1722.97c-1.71,1.55-3.35,3.19-4.9,4.9l-187.56-157.38c10.77-12.58,22.5-24.31,35.08-35.08l157.38,187.56ZM569.42,1732.3c-1.41,1.82-2.74,3.72-3.98,5.67l-212.11-122.46c8.46-14.29,17.98-27.88,28.5-40.62l187.59,157.41ZM562.56,1742.96c-1.07,2.04-2.05,4.13-2.93,6.28l-230.22-83.79c5.86-15.6,12.91-30.62,21.04-44.95l212.11,122.46ZM557.65,1754.66c-.7,2.19-1.29,4.42-1.79,6.7l-241.29-42.55c3.05-16.46,7.38-32.47,12.86-47.94l230.22,83.79ZM554.87,1767.03c-.31,2.27-.51,4.57-.6,6.9h-244.99c.15-16.83,1.62-33.34,4.3-49.45l241.3,42.55ZM554.27,1779.7c.09,2.33.3,4.63.6,6.9l-241.3,42.55c-2.68-16.11-4.15-32.63-4.3-49.45h244.99ZM555.86,1792.28c.49,2.27,1.09,4.51,1.79,6.7l-230.21,83.79c-5.49-15.47-9.82-31.48-12.86-47.94l241.29-42.55ZM559.62,1804.4c.88,2.15,1.86,4.24,2.93,6.28l-212.11,122.46c-8.13-14.33-15.18-29.35-21.04-44.95l230.22-83.79ZM565.45,1815.66c1.24,1.96,2.57,3.85,3.98,5.67l-187.59,157.41c-10.52-12.74-20.04-26.33-28.5-40.62l212.11-122.46ZM573.12,1825.76c1.56,1.71,3.19,3.35,4.9,4.9l-157.38,187.56c-12.58-10.77-24.31-22.5-35.08-35.08l187.56-157.38ZM582.44,1834.36c1.82,1.41,3.72,2.74,5.67,3.98l-122.46,212.11c-14.29-8.46-27.88-17.98-40.62-28.5l157.4-187.59ZM593.11,1841.23c2.04,1.07,4.13,2.05,6.28,2.93l-83.79,230.22c-15.6-5.86-30.62-12.91-44.95-21.04l122.46-212.11ZM604.8,1846.14c2.19.7,4.42,1.29,6.7,1.79l-14.69,83.3c-1.68.13-3.38.27-5.15.5-11.05,1.44-18.25,7.2-18.25,7.2,0,0-1.92,18.73,0,23.53,1.25,3.13,8.24,14.45,14,22.07l-18.46,104.68c-16.46-3.05-32.47-7.38-47.94-12.86l83.79-230.21ZM592.26,1990.23c.95.9,1.73,1.46,2.28,1.53,3.84.48,12.97,1.44,14.89,0,1.87-1.4,10.05-9.13,11.4-13.53l3.25-.32v116.59c-16.82-.15-33.34-1.62-49.45-4.3l17.63-99.98ZM621.29,1972.39c-.08-4.72-.66-10.35-.33-12.33.35-2.09-.31-4.17,3.12-8.26v20.32l-2.79.27ZM602.75,1930.74l14.43-81.83c2.27.31,4.57.51,6.9.6v72.57c-8.44,6.39-14.95,7.98-21.33,8.65ZM910.58,1944.1l-7.27.71c20.05-32.85,34.39-69.55,41.67-108.69l5.78.57c-7.09,38.58-20.91,74.8-40.18,107.41ZM955.31,1801.21l-5.74-.64c.33-4.54.56-9.11.7-13.7.88.11,1.72.28,2.48.53,1.08.35,2.15.71,3.23,1.06-.15,4.27-.36,8.52-.67,12.75ZM957.02,1216.71c37.88,18.63,71.46,42.12,98.57,74.46-17.44,3.13-34.82,6.24-52.76,9.46-1.01-9.11-7.21-10.77-14.13-11.48-1.75-.18-3.69-.12-5.15-.91-1.87-1-4.21-2.44-4.84-4.22-5.49-15.67-10.71-31.43-15.85-47.22-2.15-6.63-3.91-13.38-5.84-20.08ZM968.38,1600.9c9.09-12.95,20.99-24.07,34.53-34.26.46,1.22.73,1.78.88,2.37,11.88,46.88,27.18,92.88,36.42,140.46.92,4.74-.58,5.72-4.58,6.48-9.67,1.82-19.38,2.35-29.11,2.31-6.38-41.71-19.48-81.2-38.14-117.35ZM1023.78,1779.82c-4.78,8.6-8.35,17.97-10.49,27.87l-3.52-.39c.27-3.46.5-6.94.68-10.43,1.95-1.44,3.62-3.12,4.75-4.98.33-.55.63-1.11.91-1.69,1.69-3.49,3-9.71,5.12-10,.84-.11,1.69-.24,2.55-.38ZM975.72,1937.73c13.86-29.99,23.96-62.07,29.71-95.64l6.39.63c5.21,40.1,33.63,72.91,71.35,84.5l-107.46,10.51ZM1113.27,1913.71c-46.55,0-84.29-37.74-84.29-84.29,0-17.79,5.52-34.28,14.93-47.88.21.15.43.29.64.45,8.31,6.52,17.27,7.5,26.6,7.06-10.05,10.48-16.24,24.7-16.24,40.37,0,32.23,26.13,58.36,58.36,58.36,21.18,0,39.73-11.29,49.95-28.18,2.25-.22,4.51-.44,6.76-.68,7.72-.84,15.43-1.75,23.16-2.55-11.25,33.33-42.74,57.34-79.87,57.34ZM1505.29,1282.19c-10.37,10.41-20.57,21.08-29.93,32.4-58.06,70.25-117.95,139.01-172.9,211.8-14.54,19.27-29.96,37.87-45,56.76-.84,1.06-1.83,2.01-2.74,3.01-.38-.1-.75-.2-1.13-.3.39-5.64.1-11.43,1.29-16.89,4.86-22.45,10.36-44.75,17.09-66.74,4.2-13.72,8.78-27.01,18.98-37.71,5.72-6,9.28-13.41,11.14-21.5,2.72-11.84,5.24-23.72,7.84-35.58,3.49-15.9,5.66-32.24,10.82-47.57,5-14.87,9.59-29.44,8.99-45.23-.14-3.75,1.39-5.18,5.03-5.95,17.51-3.7,35.01-7.48,52.41-11.66,39.16-9.42,78.25-19.11,117.38-28.64,1.74-.42,3.61-.33,5.56-.49.36,5.9-.71,10.15-4.82,14.29ZM1526.2,1120.4c1.48,7.04,3.17,14.04,4.45,21.11.4,2.22-.24,4.62-.44,6.94-.33,3.89-1.74,8.05-.83,11.61,2.68,10.49,6.28,20.74,9.48,30.97-58.76,13.34-118.07,26.81-178.7,40.57,0-6.11-.41-11.3.12-16.38.51-4.9,2.08-9.68,3.03-14.54,1.91-9.76,3.85-19.54-.49-29.22-2.29-5.11-4.16-10.44-6.85-15.31-7.03-12.72-13.9-25.66-25.03-35.47-16.91-14.91-33.74-29.93-51.1-44.31-6.56-5.43-14.5-9.22-21.84-13.71-6.1-3.73-12.2-7.47-18.39-11.04-3.99-2.3-7.95-4.88-12.27-6.3-4.77-1.57-7.9-4.23-10.37-8.5-3.1-5.37-5.85-11.6-10.47-15.31-12.91-10.39-26.38-20.17-40.25-29.25-13.09-8.56-26.94-15.95-40.5-23.78-3.02-1.74-3.52-3.95-.9-6.01,11.04-8.66,21.66-18.39,36.88-18.74,9.37-.22,17.86-2.59,25.72-7.87,3.52-2.36,7.78-3.69,11.82-5.2,11.23-4.19,22.46-8.4,33.81-12.24,6.18-2.09,12.55-3.78,18.95-5.06,2.03-.41,4.05-.84,6.05-1.31,2.5.7,4.88,2,7.64,2.71,5.3,1.37,11.33,1.83,16.81,2.21,11.76.8,24.76.77,36.57-.8,12.51-1.67,25.72-5.19,37.78-10.67,6.15,13.7,14.86,26.02,22.8,38.77,1.67,2.67,3.83,5.31,6.36,7.12,11.23,8.03,16.53,19.36,19.81,32.33,1.15,4.54,4.29,8.81,7.28,12.61,6.6,8.4,13.82,16.31,20.54,24.62,7.14,8.82,13.89,17.95,21,26.78,6.12,7.61,14.01,12.95,22.71,17.3,14.01,7.02,29.06,10.7,44.18,14.2,9.13,2.11,18.35,3.86,27.46,5.75-6.04,6.25-12.01,12.42-17.96,18.61-4.55,4.74-6.17,10.36-4.82,16.78ZM1678.77,1244.33c-5.77-11.02-11.53-22.05-17.31-33.06-6.01-11.46-12-22.93-18.07-34.36-2.73-5.14-6.84-9.06-12.43-10.65-7.75-2.21-12.22-7.18-14.88-14.57-2.7-7.5-1.82-10.76,5.01-14.64,6.66-3.79,13.96-6.8,19.83-11.56,8.1-6.59,16.99-10.9,27.02-12.6,10.04-1.7,20.24-2.51,30.4-3.46,1.2-.11,2.88,1.14,3.78,2.23,3.87,4.66,8.7,7.57,14.67,8.23,3.46.38,7.02-.12,10.5.16,5.26.43,10.68.8,13.51,6.44,2.88,5.74,4.07,11.58-.59,16.88-12.04,13.7-19.79,29.65-25.59,46.77-5.32,15.68-12.29,30.53-23.24,43.22-3.53,4.09-6.96,8.25-10.44,12.39-.72-.47-1.44-.94-2.16-1.41ZM1723.1,1508.5c23.83,45.64,47.66,91.28,71.51,136.91,2.51,4.81,5.52,9.36,8.22,14.08,2.5,4.37,6.2,6.47,11.17,5.62,2.94-.5,4.57.28,5.27,3.19.26,1.07.69,2.16,1.28,3.09,2.64,4.13,3.28,8.01,1.08,12.9-.29.65-.5,1.4-.65,2.18l-129.88-154.78c10.15-8.38,20.84-16.11,31.99-23.19ZM1835.5,1732.3c-1.41,1.82-2.74,3.72-3.98,5.67l-212.11-122.46c8.46-14.29,17.98-27.88,28.5-40.62l187.59,157.41ZM1651.63,1570.49c10.77-12.58,22.5-24.31,35.08-35.08l137.45,163.8c4.64,9.54,9.64,18.92,14.6,28.3l-187.13-157.02ZM1828.63,1742.96c-1.07,2.04-2.05,4.13-2.93,6.28l-230.22-83.79c5.86-15.6,12.91-30.62,21.04-44.95l212.11,122.46ZM1823.72,1754.66c-.7,2.19-1.29,4.42-1.79,6.7l-241.29-42.55c3.05-16.46,7.38-32.47,12.86-47.94l230.22,83.79ZM1820.95,1767.03c-.31,2.27-.51,4.57-.6,6.9h-244.99c.15-16.83,1.62-33.34,4.3-49.45l241.3,42.55ZM1820.34,1779.7c.09,2.33.3,4.63.6,6.9l-241.3,42.55c-2.68-16.11-4.15-32.63-4.3-49.45h244.99ZM1821.93,1792.28c.49,2.27,1.09,4.51,1.79,6.7l-230.21,83.79c-5.49-15.47-9.82-31.48-12.86-47.94l241.29-42.55ZM1825.7,1804.4c.88,2.15,1.86,4.24,2.93,6.28l-212.11,122.46c-8.13-14.33-15.18-29.35-21.04-44.95l230.22-83.79ZM1831.52,1815.66c1.24,1.96,2.57,3.85,3.98,5.67l-187.59,157.41c-10.52-12.74-20.04-26.33-28.5-40.62l212.11-122.46ZM1839.19,1825.76c1.56,1.71,3.19,3.35,4.9,4.9l-157.38,187.56c-12.58-10.77-24.31-22.5-35.08-35.08l187.56-157.38ZM1848.52,1834.36c1.82,1.41,3.72,2.74,5.67,3.98l-122.46,212.11c-14.29-8.46-27.88-17.98-40.62-28.5l157.4-187.59ZM1859.18,1841.23c2.04,1.07,4.13,2.05,6.28,2.93l-83.79,230.22c-15.6-5.86-30.62-12.91-44.95-21.04l122.46-212.11ZM1870.87,1846.14c2.19.7,4.42,1.29,6.7,1.79l-42.55,241.29c-16.46-3.05-32.47-7.38-47.94-12.86l83.79-230.21ZM1883.25,1848.91c2.27.31,4.57.51,6.9.6v244.99c-16.83-.15-33.34-1.62-49.45-4.3l42.55-241.29ZM1890.16,1704.12c-.66.03-1.32.08-1.98.13-.05-2.15-.19-4.28-.99-6.1-2.49-5.69-5.21-11.28-8.06-16.81l-38.42-217.91c16.11-2.68,32.63-4.15,49.45-4.3v244.99ZM1871.11,1669.05c-.82-.55-1.68-.93-2.48-1.04-3.29-.44-4.53-1.87-5.66-4.56-2.37-5.59-5.22-10.98-7.45-16.62-.69-1.74-.72-4.51.23-5.99,3.62-5.65,4.02-11.3,1.51-17.36-2.38-5.76-4.5-11.63-7.12-17.28-20.09-43.35-40.48-86.55-61.54-129.44,15-5.24,30.51-9.39,46.44-12.35l36.08,204.63ZM1893.04,2106.07c-181.84,0-329.25-147.41-329.25-329.25,0-117.38,61.44-220.4,153.9-278.7.91,1.75,1.82,3.49,2.73,5.24-90.59,57.39-150.87,158.51-150.87,273.46,0,178.37,145.11,323.48,323.49,323.48s323.49-145.12,323.49-323.48-145.11-323.49-323.49-323.49c-37.49,0-73.51,6.43-107.02,18.22-.86-1.76-1.73-3.51-2.6-5.26,34.29-12.11,71.18-18.72,109.62-18.72,181.84,0,329.25,147.41,329.25,329.25s-147.41,329.25-329.25,329.25ZM1908.5,1847.92c2.27-.49,4.51-1.09,6.7-1.79l83.79,230.21c-15.47,5.49-31.48,9.81-47.94,12.86l-42.55-241.29ZM1945.37,2090.2c-16.11,2.68-32.63,4.15-49.45,4.3v-244.99c2.33-.09,4.63-.3,6.9-.6l42.55,241.29ZM1920.61,1844.16c2.15-.88,4.24-1.86,6.28-2.94l122.46,212.11c-14.33,8.13-29.35,15.18-44.95,21.04l-83.79-230.22ZM1931.88,1838.34c1.96-1.24,3.85-2.57,5.67-3.98l157.4,187.59c-12.74,10.52-26.33,20.04-40.62,28.5l-122.46-212.11ZM1941.98,1830.66c1.71-1.56,3.35-3.19,4.9-4.9l187.56,157.38c-10.77,12.58-22.5,24.31-35.08,35.08l-157.38-187.56ZM1950.58,1821.34c1.41-1.82,2.74-3.72,3.98-5.67l212.11,122.46c-8.46,14.29-17.98,27.88-28.5,40.62l-187.59-157.4ZM1957.44,1810.68c1.07-2.04,2.05-4.13,2.94-6.28l230.22,83.79c-5.86,15.6-12.91,30.62-21.04,44.95l-212.11-122.46ZM1962.35,1798.98c.7-2.19,1.29-4.43,1.79-6.7l241.29,42.55c-3.05,16.46-7.38,32.47-12.86,47.94l-230.21-83.79ZM1965.13,1786.6c.31-2.27.51-4.57.6-6.9h244.99c-.15,16.83-1.62,33.34-4.3,49.45l-241.3-42.55ZM1965.73,1773.94c-.09-2.33-.3-4.63-.6-6.9l241.3-42.55c2.68,16.11,4.15,32.63,4.3,49.45h-244.99ZM1964.14,1761.35c-.49-2.27-1.09-4.51-1.79-6.7l230.21-83.79c5.49,15.47,9.82,31.48,12.86,47.94l-241.29,42.55ZM1960.38,1749.24c-.88-2.15-1.86-4.24-2.93-6.28l212.11-122.46c8.13,14.33,15.18,29.35,21.04,44.95l-230.22,83.79ZM1954.56,1737.97c-1.24-1.96-2.57-3.85-3.98-5.67l187.59-157.41c10.52,12.74,20.04,26.33,28.5,40.62l-212.11,122.46ZM1946.88,1727.87c-1.56-1.71-3.19-3.35-4.9-4.9l157.38-187.56c12.58,10.77,24.31,22.5,35.08,35.08l-187.56,157.38ZM1937.56,1719.28c-1.82-1.41-3.72-2.74-5.67-3.98l122.46-212.11c14.29,8.46,27.88,17.98,40.62,28.5l-157.41,187.59ZM1926.9,1712.41c-2.04-1.07-4.13-2.05-6.28-2.94l83.79-230.22c15.6,5.86,30.62,12.91,44.95,21.04l-122.46,212.11ZM1915.2,1707.5c-2.19-.7-4.42-1.29-6.7-1.79l42.55-241.29c16.46,3.05,32.47,7.38,47.94,12.86l-83.79,230.22ZM1902.82,1704.73c-2.27-.31-4.57-.51-6.9-.6v-244.99c16.83.15,33.34,1.62,49.45,4.3l-42.55,241.3Z"/>
    <path class="cls-1" d="M1084.41,561.62s.09-.03.13-.05c-.04-.02-.09-.05-.13-.07-.74.04-.74.08,0,.13Z"/>
  </g>
</svg>